<?xml version="1.0" encoding="UTF-8" standalone="no"?><svg xmlns="http://www.w3.org/2000/svg" xmlns:xlink="http://www.w3.org/1999/xlink" contentScriptType="application/ecmascript" contentStyleType="text/css" height="91px" preserveAspectRatio="none" style="width:142px;height:91px;" version="1.1" viewBox="0 0 142 91" width="142px" zoomAndPan="magnify"><defs><filter height="300%" id="f1tflmro4of0z0" width="300%" x="-1" y="-1"><feGaussianBlur result="blurOut" stdDeviation="2.0"/><feColorMatrix in="blurOut" result="blurOut2" type="matrix" values="0 0 0 0 0 0 0 0 0 0 0 0 0 0 0 0 0 0 .4 0"/><feOffset dx="4.0" dy="4.0" in="blurOut2" result="blurOut3"/><feBlend in="SourceGraphic" in2="blurOut3" mode="normal"/></filter></defs><g><!--MD5=[3eff9d4279c887ef9286477750bdaaff]
class Character--><rect fill="#FEFECE" filter="url(#f1tflmro4of0z0)" height="73.6094" id="Character" style="stroke: #A80036; stroke-width: 1.5;" width="124" x="7" y="7"/><ellipse cx="35.5" cy="23" fill="#ADD1B2" rx="11" ry="11" style="stroke: #A80036; stroke-width: 1.0;"/><path d="M38.4688,28.6406 Q37.8906,28.9375 37.25,29.0781 Q36.6094,29.2344 35.9063,29.2344 Q33.4063,29.2344 32.0781,27.5938 Q30.7656,25.9375 30.7656,22.8125 Q30.7656,19.6875 32.0781,18.0313 Q33.4063,16.375 35.9063,16.375 Q36.6094,16.375 37.25,16.5313 Q37.9063,16.6875 38.4688,16.9844 L38.4688,19.7031 Q37.8438,19.125 37.25,18.8594 Q36.6563,18.5781 36.0313,18.5781 Q34.6875,18.5781 34,19.6563 Q33.3125,20.7188 33.3125,22.8125 Q33.3125,24.9063 34,25.9844 Q34.6875,27.0469 36.0313,27.0469 Q36.6563,27.0469 37.25,26.7813 Q37.8438,26.5 38.4688,25.9219 L38.4688,28.6406 Z "/><text fill="#000000" font-family="sans-serif" font-size="12" lengthAdjust="spacingAndGlyphs" textLength="62" x="52.5" y="27.1543">Character</text><line style="stroke: #A80036; stroke-width: 1.5;" x1="8" x2="130" y1="39" y2="39"/><rect fill="none" height="6" style="stroke: #C82930; stroke-width: 1.0;" width="6" x="15" y="47"/><text fill="#000000" font-family="sans-serif" font-size="11" lengthAdjust="spacingAndGlyphs" textLength="98" x="27" y="53.2104">firstName: String</text><rect fill="none" height="6" style="stroke: #C82930; stroke-width: 1.0;" width="6" x="15" y="59.8047"/><text fill="#000000" font-family="sans-serif" font-size="11" lengthAdjust="spacingAndGlyphs" textLength="96" x="27" y="66.0151">lastName: String</text><line style="stroke: #A80036; stroke-width: 1.5;" x1="8" x2="130" y1="72.6094" y2="72.6094"/><!--MD5=[56debd0ae4bfb97d5f5c1d071736b1b2]
@startuml
class Character {
  - firstName: String
  - lastName: String
}

@enduml

PlantUML version 1.2020.02(Sun Mar 01 10:22:07 UTC 2020)
(GPL source distribution)
Java Runtime: OpenJDK Runtime Environment
JVM: OpenJDK 64-Bit Server VM
Java Version: 11.0.21+9
Operating System: Linux
Default Encoding: UTF-8
Language: en
Country: null
--></g></svg>