<?xml version="1.0" encoding="UTF-8" standalone="no"?><svg xmlns="http://www.w3.org/2000/svg" xmlns:xlink="http://www.w3.org/1999/xlink" contentScriptType="application/ecmascript" contentStyleType="text/css" height="226px" preserveAspectRatio="none" style="width:565px;height:226px;" version="1.1" viewBox="0 0 565 226" width="565px" zoomAndPan="magnify"><defs><filter height="300%" id="fi9z4eydtp06o" width="300%" x="-1" y="-1"><feGaussianBlur result="blurOut" stdDeviation="2.0"/><feColorMatrix in="blurOut" result="blurOut2" type="matrix" values="0 0 0 0 0 0 0 0 0 0 0 0 0 0 0 0 0 0 .4 0"/><feOffset dx="4.0" dy="4.0" in="blurOut2" result="blurOut3"/><feBlend in="SourceGraphic" in2="blurOut3" mode="normal"/></filter></defs><g><!--MD5=[3aa0d89c6bfdcbf7f32042cedac57549]
class Vehicle--><rect fill="#FEFECE" filter="url(#fi9z4eydtp06o)" height="73.6094" id="Vehicle" style="stroke: #A80036; stroke-width: 1.5;" width="103" x="6" y="75"/><ellipse cx="32.7" cy="91" fill="#A9DCDF" rx="11" ry="11" style="stroke: #A80036; stroke-width: 1.0;"/><path d="M32.8094,86.3438 L31.6531,91.4219 L33.9813,91.4219 L32.8094,86.3438 Z M31.325,84.1094 L34.3094,84.1094 L37.6688,96.5 L35.2156,96.5 L34.45,93.4375 L31.1688,93.4375 L30.4188,96.5 L27.9813,96.5 L31.325,84.1094 Z "/><text fill="#000000" font-family="sans-serif" font-size="12" font-style="italic" lengthAdjust="spacingAndGlyphs" textLength="45" x="49.3" y="95.1543">Vehicle</text><line style="stroke: #A80036; stroke-width: 1.5;" x1="7" x2="108" y1="107" y2="107"/><rect fill="none" height="6" style="stroke: #C82930; stroke-width: 1.0;" width="6" x="14" y="115"/><text fill="#000000" font-family="sans-serif" font-size="11" lengthAdjust="spacingAndGlyphs" textLength="75" x="26" y="121.2104">brand: String</text><rect fill="none" height="6" style="stroke: #C82930; stroke-width: 1.0;" width="6" x="14" y="127.8047"/><text fill="#000000" font-family="sans-serif" font-size="11" lengthAdjust="spacingAndGlyphs" textLength="77" x="26" y="134.0151">model: String</text><line style="stroke: #A80036; stroke-width: 1.5;" x1="7" x2="108" y1="140.6094" y2="140.6094"/><!--MD5=[f2ba7f6ab60af8dd0d3e354f91729b14]
class Truck--><rect fill="#FEFECE" filter="url(#fi9z4eydtp06o)" height="86.4141" id="Truck" style="stroke: #A80036; stroke-width: 1.5;" width="311" x="206" y="8"/><ellipse cx="340.25" cy="24" fill="#ADD1B2" rx="11" ry="11" style="stroke: #A80036; stroke-width: 1.0;"/><path d="M343.2188,29.6406 Q342.6406,29.9375 342,30.0781 Q341.3594,30.2344 340.6563,30.2344 Q338.1563,30.2344 336.8281,28.5938 Q335.5156,26.9375 335.5156,23.8125 Q335.5156,20.6875 336.8281,19.0313 Q338.1563,17.375 340.6563,17.375 Q341.3594,17.375 342,17.5313 Q342.6563,17.6875 343.2188,17.9844 L343.2188,20.7031 Q342.5938,20.125 342,19.8594 Q341.4063,19.5781 340.7813,19.5781 Q339.4375,19.5781 338.75,20.6563 Q338.0625,21.7188 338.0625,23.8125 Q338.0625,25.9063 338.75,26.9844 Q339.4375,28.0469 340.7813,28.0469 Q341.4063,28.0469 342,27.7813 Q342.5938,27.5 343.2188,26.9219 L343.2188,29.6406 Z "/><text fill="#000000" font-family="sans-serif" font-size="12" lengthAdjust="spacingAndGlyphs" textLength="34" x="360.75" y="28.1543">Truck</text><line style="stroke: #A80036; stroke-width: 1.5;" x1="207" x2="516" y1="40" y2="40"/><rect fill="none" height="6" style="stroke: #C82930; stroke-width: 1.0;" width="6" x="214" y="48"/><text fill="#000000" font-family="sans-serif" font-size="11" lengthAdjust="spacingAndGlyphs" textLength="90" x="226" y="54.2104">maxPayload: int</text><line style="stroke: #A80036; stroke-width: 1.5;" x1="207" x2="516" y1="60.8047" y2="60.8047"/><ellipse cx="217" cy="71.8047" fill="#84BE84" rx="3" ry="3" style="stroke: #038048; stroke-width: 1.0;"/><text fill="#000000" font-family="sans-serif" font-size="11" lengthAdjust="spacingAndGlyphs" textLength="285" x="226" y="75.0151">Truck(String model, String brand, int maxPayload)</text><ellipse cx="217" cy="84.6094" fill="#84BE84" rx="3" ry="3" style="stroke: #038048; stroke-width: 1.0;"/><text fill="#000000" font-family="sans-serif" font-size="11" lengthAdjust="spacingAndGlyphs" textLength="95" x="226" y="87.8198">toString(): String</text><!--MD5=[473f02e043ed4904d2e07a0a186d38ec]
class PassengerCar--><rect fill="#FEFECE" filter="url(#fi9z4eydtp06o)" height="86.4141" id="PassengerCar" style="stroke: #A80036; stroke-width: 1.5;" width="385" x="169" y="129"/><ellipse cx="313.25" cy="145" fill="#ADD1B2" rx="11" ry="11" style="stroke: #A80036; stroke-width: 1.0;"/><path d="M316.2188,150.6406 Q315.6406,150.9375 315,151.0781 Q314.3594,151.2344 313.6563,151.2344 Q311.1563,151.2344 309.8281,149.5938 Q308.5156,147.9375 308.5156,144.8125 Q308.5156,141.6875 309.8281,140.0313 Q311.1563,138.375 313.6563,138.375 Q314.3594,138.375 315,138.5313 Q315.6563,138.6875 316.2188,138.9844 L316.2188,141.7031 Q315.5938,141.125 315,140.8594 Q314.4063,140.5781 313.7813,140.5781 Q312.4375,140.5781 311.75,141.6563 Q311.0625,142.7188 311.0625,144.8125 Q311.0625,146.9063 311.75,147.9844 Q312.4375,149.0469 313.7813,149.0469 Q314.4063,149.0469 315,148.7813 Q315.5938,148.5 316.2188,147.9219 L316.2188,150.6406 Z "/><text fill="#000000" font-family="sans-serif" font-size="12" lengthAdjust="spacingAndGlyphs" textLength="88" x="333.75" y="149.1543">PassengerCar</text><line style="stroke: #A80036; stroke-width: 1.5;" x1="170" x2="553" y1="161" y2="161"/><rect fill="none" height="6" style="stroke: #C82930; stroke-width: 1.0;" width="6" x="177" y="169"/><text fill="#000000" font-family="sans-serif" font-size="11" lengthAdjust="spacingAndGlyphs" textLength="114" x="189" y="175.2104">maxPassengers: int</text><line style="stroke: #A80036; stroke-width: 1.5;" x1="170" x2="553" y1="181.8047" y2="181.8047"/><ellipse cx="180" cy="192.8047" fill="#84BE84" rx="3" ry="3" style="stroke: #038048; stroke-width: 1.0;"/><text fill="#000000" font-family="sans-serif" font-size="11" lengthAdjust="spacingAndGlyphs" textLength="359" x="189" y="196.0151">PassengerCar(String brand, String model, int maxPassengers)</text><ellipse cx="180" cy="205.6094" fill="#84BE84" rx="3" ry="3" style="stroke: #038048; stroke-width: 1.0;"/><text fill="#000000" font-family="sans-serif" font-size="11" lengthAdjust="spacingAndGlyphs" textLength="95" x="189" y="208.8198">toString(): String</text><!--MD5=[cb9cad99a4306261c52d19c3b1cac949]
reverse link Vehicle to Truck--><path d="M128.83,97.79 C152.04,93.11 178.83,87.69 205.79,82.25 " fill="none" id="Vehicle&lt;-Truck" style="stroke: #A80036; stroke-width: 1.0;"/><polygon fill="none" points="130.04,104.69,109.05,101.79,127.27,90.97,130.04,104.69" style="stroke: #A80036; stroke-width: 1.0;"/><!--MD5=[886742b6c345bfde3a42c0a6331de0b8]
reverse link Vehicle to PassengerCar--><path d="M128.95,126 C141.41,128.47 154.91,131.15 168.91,133.94 " fill="none" id="Vehicle&lt;-PassengerCar" style="stroke: #A80036; stroke-width: 1.0;"/><polygon fill="none" points="127.3,132.81,109.05,122.04,130.03,119.07,127.3,132.81" style="stroke: #A80036; stroke-width: 1.0;"/><!--MD5=[3de9c982a563950ce3a6a4cf1535318f]
@startuml
left to right direction

abstract class Vehicle {
  - brand: String
  - model: String
}

class Truck {
  - maxPayload: int
  + Truck(String model, String brand, int maxPayload)
  + toString(): String
}

class PassengerCar {
  - maxPassengers: int
  + PassengerCar(String brand, String model, int maxPassengers)
    + toString(): String
}

Vehicle <|- - Truck
Vehicle <|- - PassengerCar

@enduml

PlantUML version 1.2020.02(Sun Mar 01 10:22:07 UTC 2020)
(GPL source distribution)
Java Runtime: OpenJDK Runtime Environment
JVM: OpenJDK 64-Bit Server VM
Java Version: 11.0.21+9
Operating System: Linux
Default Encoding: UTF-8
Language: en
Country: null
--></g></svg>