<?xml version="1.0" encoding="UTF-8" standalone="no"?><svg xmlns="http://www.w3.org/2000/svg" xmlns:xlink="http://www.w3.org/1999/xlink" contentScriptType="application/ecmascript" contentStyleType="text/css" height="213px" preserveAspectRatio="none" style="width:308px;height:213px;" version="1.1" viewBox="0 0 308 213" width="308px" zoomAndPan="magnify"><defs><filter height="300%" id="fskw8v2rdtkwm" width="300%" x="-1" y="-1"><feGaussianBlur result="blurOut" stdDeviation="2.0"/><feColorMatrix in="blurOut" result="blurOut2" type="matrix" values="0 0 0 0 0 0 0 0 0 0 0 0 0 0 0 0 0 0 .4 0"/><feOffset dx="4.0" dy="4.0" in="blurOut2" result="blurOut3"/><feBlend in="SourceGraphic" in2="blurOut3" mode="normal"/></filter></defs><g><!--MD5=[3aa0d89c6bfdcbf7f32042cedac57549]
class Vehicle--><rect fill="#FEFECE" filter="url(#fskw8v2rdtkwm)" height="73.6094" id="Vehicle" style="stroke: #A80036; stroke-width: 1.5;" width="103" x="93.5" y="8"/><ellipse cx="120.2" cy="24" fill="#ADD1B2" rx="11" ry="11" style="stroke: #A80036; stroke-width: 1.0;"/><path d="M123.1688,29.6406 Q122.5906,29.9375 121.95,30.0781 Q121.3094,30.2344 120.6063,30.2344 Q118.1063,30.2344 116.7781,28.5938 Q115.4656,26.9375 115.4656,23.8125 Q115.4656,20.6875 116.7781,19.0313 Q118.1063,17.375 120.6063,17.375 Q121.3094,17.375 121.95,17.5313 Q122.6063,17.6875 123.1688,17.9844 L123.1688,20.7031 Q122.5438,20.125 121.95,19.8594 Q121.3563,19.5781 120.7313,19.5781 Q119.3875,19.5781 118.7,20.6563 Q118.0125,21.7188 118.0125,23.8125 Q118.0125,25.9063 118.7,26.9844 Q119.3875,28.0469 120.7313,28.0469 Q121.3563,28.0469 121.95,27.7813 Q122.5438,27.5 123.1688,26.9219 L123.1688,29.6406 Z "/><text fill="#000000" font-family="sans-serif" font-size="12" lengthAdjust="spacingAndGlyphs" textLength="45" x="136.8" y="28.1543">Vehicle</text><line style="stroke: #A80036; stroke-width: 1.5;" x1="94.5" x2="195.5" y1="40" y2="40"/><rect fill="none" height="6" style="stroke: #C82930; stroke-width: 1.0;" width="6" x="101.5" y="48"/><text fill="#000000" font-family="sans-serif" font-size="11" lengthAdjust="spacingAndGlyphs" textLength="75" x="113.5" y="54.2104">brand: String</text><rect fill="none" height="6" style="stroke: #C82930; stroke-width: 1.0;" width="6" x="101.5" y="60.8047"/><text fill="#000000" font-family="sans-serif" font-size="11" lengthAdjust="spacingAndGlyphs" textLength="77" x="113.5" y="67.0151">model: String</text><line style="stroke: #A80036; stroke-width: 1.5;" x1="94.5" x2="195.5" y1="73.6094" y2="73.6094"/><!--MD5=[f2ba7f6ab60af8dd0d3e354f91729b14]
class Truck--><rect fill="#FEFECE" filter="url(#fskw8v2rdtkwm)" height="60.8047" id="Truck" style="stroke: #A80036; stroke-width: 1.5;" width="116" x="6" y="142"/><ellipse cx="43.5" cy="158" fill="#ADD1B2" rx="11" ry="11" style="stroke: #A80036; stroke-width: 1.0;"/><path d="M46.4688,163.6406 Q45.8906,163.9375 45.25,164.0781 Q44.6094,164.2344 43.9063,164.2344 Q41.4063,164.2344 40.0781,162.5938 Q38.7656,160.9375 38.7656,157.8125 Q38.7656,154.6875 40.0781,153.0313 Q41.4063,151.375 43.9063,151.375 Q44.6094,151.375 45.25,151.5313 Q45.9063,151.6875 46.4688,151.9844 L46.4688,154.7031 Q45.8438,154.125 45.25,153.8594 Q44.6563,153.5781 44.0313,153.5781 Q42.6875,153.5781 42,154.6563 Q41.3125,155.7188 41.3125,157.8125 Q41.3125,159.9063 42,160.9844 Q42.6875,162.0469 44.0313,162.0469 Q44.6563,162.0469 45.25,161.7813 Q45.8438,161.5 46.4688,160.9219 L46.4688,163.6406 Z "/><text fill="#000000" font-family="sans-serif" font-size="12" lengthAdjust="spacingAndGlyphs" textLength="34" x="62.5" y="162.1543">Truck</text><line style="stroke: #A80036; stroke-width: 1.5;" x1="7" x2="121" y1="174" y2="174"/><rect fill="none" height="6" style="stroke: #C82930; stroke-width: 1.0;" width="6" x="14" y="182"/><text fill="#000000" font-family="sans-serif" font-size="11" lengthAdjust="spacingAndGlyphs" textLength="90" x="26" y="188.2104">maxPayload: int</text><line style="stroke: #A80036; stroke-width: 1.5;" x1="7" x2="121" y1="194.8047" y2="194.8047"/><!--MD5=[473f02e043ed4904d2e07a0a186d38ec]
class PassengerCar--><rect fill="#FEFECE" filter="url(#fskw8v2rdtkwm)" height="60.8047" id="PassengerCar" style="stroke: #A80036; stroke-width: 1.5;" width="140" x="157" y="142"/><ellipse cx="181" cy="158" fill="#ADD1B2" rx="11" ry="11" style="stroke: #A80036; stroke-width: 1.0;"/><path d="M183.9688,163.6406 Q183.3906,163.9375 182.75,164.0781 Q182.1094,164.2344 181.4063,164.2344 Q178.9063,164.2344 177.5781,162.5938 Q176.2656,160.9375 176.2656,157.8125 Q176.2656,154.6875 177.5781,153.0313 Q178.9063,151.375 181.4063,151.375 Q182.1094,151.375 182.75,151.5313 Q183.4063,151.6875 183.9688,151.9844 L183.9688,154.7031 Q183.3438,154.125 182.75,153.8594 Q182.1563,153.5781 181.5313,153.5781 Q180.1875,153.5781 179.5,154.6563 Q178.8125,155.7188 178.8125,157.8125 Q178.8125,159.9063 179.5,160.9844 Q180.1875,162.0469 181.5313,162.0469 Q182.1563,162.0469 182.75,161.7813 Q183.3438,161.5 183.9688,160.9219 L183.9688,163.6406 Z "/><text fill="#000000" font-family="sans-serif" font-size="12" lengthAdjust="spacingAndGlyphs" textLength="88" x="197" y="162.1543">PassengerCar</text><line style="stroke: #A80036; stroke-width: 1.5;" x1="158" x2="296" y1="174" y2="174"/><rect fill="none" height="6" style="stroke: #C82930; stroke-width: 1.0;" width="6" x="165" y="182"/><text fill="#000000" font-family="sans-serif" font-size="11" lengthAdjust="spacingAndGlyphs" textLength="114" x="177" y="188.2104">maxPassengers: int</text><line style="stroke: #A80036; stroke-width: 1.5;" x1="158" x2="296" y1="194.8047" y2="194.8047"/><!--MD5=[cb9cad99a4306261c52d19c3b1cac949]
reverse link Vehicle to Truck--><path d="M110.55,99.38 C101.22,113.84 91.45,128.97 83.28,141.62 " fill="none" id="Vehicle&lt;-Truck" style="stroke: #A80036; stroke-width: 1.0;"/><polygon fill="none" points="104.84,95.31,121.57,82.3,116.61,102.9,104.84,95.31" style="stroke: #A80036; stroke-width: 1.0;"/><!--MD5=[886742b6c345bfde3a42c0a6331de0b8]
reverse link Vehicle to PassengerCar--><path d="M179.88,99.38 C189.33,113.84 199.21,128.97 207.48,141.62 " fill="none" id="Vehicle&lt;-PassengerCar" style="stroke: #A80036; stroke-width: 1.0;"/><polygon fill="none" points="173.8,102.87,168.72,82.3,185.52,95.21,173.8,102.87" style="stroke: #A80036; stroke-width: 1.0;"/><!--MD5=[bc6214a210c99b05161bc4ab8450fd95]
@startuml

class Vehicle {
  - brand: String
  - model: String
}

class Truck {
  - maxPayload: int
}

class PassengerCar {
  - maxPassengers: int
}

Vehicle <|- - Truck
Vehicle <|- - PassengerCar

@enduml

PlantUML version 1.2020.02(Sun Mar 01 10:22:07 UTC 2020)
(GPL source distribution)
Java Runtime: OpenJDK Runtime Environment
JVM: OpenJDK 64-Bit Server VM
Java Version: 11.0.21+9
Operating System: Linux
Default Encoding: UTF-8
Language: en
Country: null
--></g></svg>